<svg xmlns="http://www.w3.org/2000/svg" viewBox="0 0 24 24">
  <rect width="24" height="24" rx="6" fill="#0D96F6"/>
  <path fill="#fff" d="M8.809 14.919 14.919 3.883c.084-.152.168-.303.244-.459.068-.142.127-.285.165-.44.08-.326.058-.666-.066-.977a1.45 1.45 0 0 0-.62-.735 1.418 1.418 0 0 0-.921-.193 1.45 1.45 0 0 0-.845.429c-.109.112-.2.236-.283.369-.092.146-.175.298-.259.449l-.386.698-.387-.698c-.084-.151-.167-.303-.259-.449a2.021 2.021 0 0 0-.283-.369 1.45 1.45 0 0 0-.844-.429 1.418 1.418 0 0 0-.921.193 1.45 1.45 0 0 0-.62.735c-.125.311-.146.651-.066.977.038.155.096.298.165.44.075.156.159.307.243.459l1.248 2.254-4.862 8.782H2.03c-.168 0-.335 0-.503.009-.152.009-.3.028-.448.071-.311.091-.582.28-.778.548A1.55 1.55 0 0 0 0 16.452c0 .335.106.661.301.928.196.268.467.457.778.548.148.043.296.062.448.071.168.01.335.009.503.009h13.097c.017-.035.059-.129.1-.269.415-1.415-.616-2.843-2.035-2.843zm-5.696 3.623-.792 1.5c-.082.156-.165.31-.239.471-.067.146-.124.293-.161.452-.079.335-.058.684.064 1.003.121.318.335.583.607.755.273.172.59.242.902.198.314-.044.6-.199.826-.44.107-.115.196-.243.277-.379.09-.15.172-.306.254-.462L6 19.464c-.09-.149-.947-1.471-2.887-.922m20.586-3.006a1.47 1.47 0 0 0-.779-.54c-.147-.043-.296-.062-.448-.071-.168-.01-.335-.009-.503-.009h-3.321l-4.389-7.817c-.666.7-.964 1.485-1.078 2.197-.165 1.034.037 2.094.546 3.001l5.274 9.393c.084.15.167.299.259.444.084.131.174.254.284.364.231.232.524.381.845.423.319.043.643-.024.922-.189.278-.166.497-.421.621-.726.125-.307.146-.642.066-.964-.038-.153-.096-.294-.165-.435-.075-.154-.16-.303-.244-.452l-1.216-2.166h1.596c.168 0 .335 0 .503-.009.152-.009.301-.028.448-.07a1.47 1.47 0 0 0 .779-.541 1.539 1.539 0 0 0 .301-.916 1.539 1.539 0 0 0-.301-.916Z"/>
</svg>
